<?xml version="1.0" encoding="UTF-8" standalone="no"?>
<!DOCTYPE svg PUBLIC "-//W3C//DTD SVG 1.1//EN"
 "http://www.w3.org/Graphics/SVG/1.1/DTD/svg11.dtd">
<!-- Generated by graphviz version 12.2.1 (20241206.2353)
 -->
<!-- Title: command_flow Pages: 1 -->
<svg width="850pt" height="129pt"
 viewBox="0.00 0.00 849.50 129.00" xmlns="http://www.w3.org/2000/svg" xmlns:xlink="http://www.w3.org/1999/xlink">
<g id="graph0" class="graph" transform="scale(1 1) rotate(0) translate(4 125)">
<title>command_flow</title>
<polygon fill="white" stroke="none" points="-4,4 -4,-125 845.5,-125 845.5,4 -4,4"/>
<g id="clust1" class="cluster">
<title>cluster_cli</title>
<path fill="none" stroke="#e0e0e0" d="M20,-36C20,-36 420.25,-36 420.25,-36 426.25,-36 432.25,-42 432.25,-48 432.25,-48 432.25,-101 432.25,-101 432.25,-107 426.25,-113 420.25,-113 420.25,-113 20,-113 20,-113 14,-113 8,-107 8,-101 8,-101 8,-48 8,-48 8,-42 14,-36 20,-36"/>
<text text-anchor="middle" x="220.12" y="-95.7" font-family="Times,serif" font-size="14.00">CLI Layer</text>
</g>
<g id="clust2" class="cluster">
<title>cluster_business</title>
<path fill="none" stroke="#e0e0e0" d="M465.25,-8C465.25,-8 574.5,-8 574.5,-8 580.5,-8 586.5,-14 586.5,-20 586.5,-20 586.5,-73 586.5,-73 586.5,-79 580.5,-85 574.5,-85 574.5,-85 465.25,-85 465.25,-85 459.25,-85 453.25,-79 453.25,-73 453.25,-73 453.25,-20 453.25,-20 453.25,-14 459.25,-8 465.25,-8"/>
<text text-anchor="middle" x="519.88" y="-67.7" font-family="Times,serif" font-size="14.00">Business Layer</text>
</g>
<g id="clust3" class="cluster">
<title>cluster_api</title>
<path fill="none" stroke="#e0e0e0" d="M619.5,-8C619.5,-8 821.5,-8 821.5,-8 827.5,-8 833.5,-14 833.5,-20 833.5,-20 833.5,-73 833.5,-73 833.5,-79 827.5,-85 821.5,-85 821.5,-85 619.5,-85 619.5,-85 613.5,-85 607.5,-79 607.5,-73 607.5,-73 607.5,-20 607.5,-20 607.5,-14 613.5,-8 619.5,-8"/>
<text text-anchor="middle" x="720.5" y="-67.7" font-family="Times,serif" font-size="14.00">API Layer</text>
</g>
<!-- cli -->
<g id="node1" class="node">
<title>cli</title>
<path fill="none" stroke="black" d="M68,-80C68,-80 28,-80 28,-80 22,-80 16,-74 16,-68 16,-68 16,-56 16,-56 16,-50 22,-44 28,-44 28,-44 68,-44 68,-44 74,-44 80,-50 80,-56 80,-56 80,-68 80,-68 80,-74 74,-80 68,-80"/>
<text text-anchor="middle" x="48" y="-57.73" font-family="Arial" font-size="12.00">CLI Input</text>
</g>
<!-- parser -->
<g id="node2" class="node">
<title>parser</title>
<path fill="none" stroke="black" d="M214.75,-80C214.75,-80 129,-80 129,-80 123,-80 117,-74 117,-68 117,-68 117,-56 117,-56 117,-50 123,-44 129,-44 129,-44 214.75,-44 214.75,-44 220.75,-44 226.75,-50 226.75,-56 226.75,-56 226.75,-68 226.75,-68 226.75,-74 220.75,-80 214.75,-80"/>
<text text-anchor="middle" x="171.88" y="-57.73" font-family="Arial" font-size="12.00">Command Parser</text>
</g>
<!-- cli&#45;&gt;parser -->
<g id="edge1" class="edge">
<title>cli&#45;&gt;parser</title>
<path fill="none" stroke="black" d="M80.39,-62C88.13,-62 96.72,-62 105.44,-62"/>
<polygon fill="black" stroke="black" points="105.39,-65.5 115.39,-62 105.39,-58.5 105.39,-65.5"/>
</g>
<!-- dispatcher -->
<g id="node3" class="node">
<title>dispatcher</title>
<path fill="none" stroke="black" d="M412.25,-80C412.25,-80 304,-80 304,-80 298,-80 292,-74 292,-68 292,-68 292,-56 292,-56 292,-50 298,-44 304,-44 304,-44 412.25,-44 412.25,-44 418.25,-44 424.25,-50 424.25,-56 424.25,-56 424.25,-68 424.25,-68 424.25,-74 418.25,-80 412.25,-80"/>
<text text-anchor="middle" x="358.12" y="-57.73" font-family="Arial" font-size="12.00">Command Dispatcher</text>
</g>
<!-- parser&#45;&gt;dispatcher -->
<g id="edge2" class="edge">
<title>parser&#45;&gt;dispatcher</title>
<path fill="none" stroke="black" d="M227.16,-62C243.78,-62 262.4,-62 280.23,-62"/>
<polygon fill="black" stroke="black" points="279.99,-65.5 289.99,-62 279.99,-58.5 279.99,-65.5"/>
</g>
<!-- handler -->
<g id="node4" class="node">
<title>handler</title>
<path fill="none" stroke="black" d="M566.5,-52C566.5,-52 473.25,-52 473.25,-52 467.25,-52 461.25,-46 461.25,-40 461.25,-40 461.25,-28 461.25,-28 461.25,-22 467.25,-16 473.25,-16 473.25,-16 566.5,-16 566.5,-16 572.5,-16 578.5,-22 578.5,-28 578.5,-28 578.5,-40 578.5,-40 578.5,-46 572.5,-52 566.5,-52"/>
<text text-anchor="middle" x="519.88" y="-29.73" font-family="Arial" font-size="12.00">Command Handler</text>
</g>
<!-- dispatcher&#45;&gt;handler -->
<g id="edge3" class="edge">
<title>dispatcher&#45;&gt;handler</title>
<path fill="none" stroke="black" d="M424.56,-50.53C432.86,-49.08 441.36,-47.59 449.71,-46.12"/>
<polygon fill="black" stroke="black" points="450.23,-49.59 459.47,-44.41 449.02,-42.69 450.23,-49.59"/>
</g>
<!-- handler&#45;&gt;cli -->
<g id="edge6" class="edge">
<title>handler&#45;&gt;cli</title>
<path fill="none" stroke="black" d="M460.99,-27.43C382.31,-20.02 237.58,-11.78 117,-35 108.41,-36.65 99.53,-39.37 91.13,-42.46"/>
<polygon fill="black" stroke="black" points="89.85,-39.2 81.83,-46.12 92.42,-45.71 89.85,-39.2"/>
<text text-anchor="middle" x="259.38" y="-23.34" font-family="Arial" font-size="10.00">Output</text>
</g>
<!-- api -->
<g id="node5" class="node">
<title>api</title>
<path fill="none" stroke="black" d="M673.5,-52C673.5,-52 627.5,-52 627.5,-52 621.5,-52 615.5,-46 615.5,-40 615.5,-40 615.5,-28 615.5,-28 615.5,-22 621.5,-16 627.5,-16 627.5,-16 673.5,-16 673.5,-16 679.5,-16 685.5,-22 685.5,-28 685.5,-28 685.5,-40 685.5,-40 685.5,-46 679.5,-52 673.5,-52"/>
<text text-anchor="middle" x="650.5" y="-29.73" font-family="Arial" font-size="12.00">API Client</text>
</g>
<!-- handler&#45;&gt;api -->
<g id="edge4" class="edge">
<title>handler&#45;&gt;api</title>
<path fill="none" stroke="black" d="M578.79,-34C587.12,-34 595.6,-34 603.66,-34"/>
<polygon fill="black" stroke="black" points="603.58,-37.5 613.58,-34 603.58,-30.5 603.58,-37.5"/>
</g>
<!-- dna -->
<g id="node6" class="node">
<title>dna</title>
<path fill="none" stroke="black" d="M813.5,-52C813.5,-52 734.5,-52 734.5,-52 728.5,-52 722.5,-46 722.5,-40 722.5,-40 722.5,-28 722.5,-28 722.5,-22 728.5,-16 734.5,-16 734.5,-16 813.5,-16 813.5,-16 819.5,-16 825.5,-22 825.5,-28 825.5,-28 825.5,-40 825.5,-40 825.5,-46 819.5,-52 813.5,-52"/>
<text text-anchor="middle" x="774" y="-29.73" font-family="Arial" font-size="12.00">DNA Center API</text>
</g>
<!-- api&#45;&gt;dna -->
<g id="edge5" class="edge">
<title>api&#45;&gt;dna</title>
<path fill="none" stroke="black" d="M697.45,-34C701.85,-34 706.36,-34 710.88,-34"/>
<polygon fill="black" stroke="black" points="697.51,-30.5 687.51,-34 697.51,-37.5 697.51,-30.5"/>
<polygon fill="black" stroke="black" points="710.58,-37.5 720.58,-34 710.58,-30.5 710.58,-37.5"/>
</g>
</g>
</svg>
